<svg xmlns="http://www.w3.org/2000/svg" width="101" height="24" viewBox="0 0 101 24" fill="none">
  <g clip-path="url(#clip0_5_13)">
    <path d="M31.647 4.36997C31.4636 3.69746 31.1057 3.08436 30.6091 2.59172C30.1126 2.09909 29.4945 1.7441 28.8166 1.56213C26.3349 0.890686 16.3465 0.890686 16.3465 0.890686C16.3465 0.890686 6.35807 0.911033 3.87635 1.58247C3.19844 1.76445 2.58042 2.11943 2.08382 2.61207C1.58723 3.10471 1.2294 3.71781 1.04596 4.39032C0.295288 8.76485 0.0040451 15.4304 1.06647 19.63C1.24991 20.3025 1.60774 20.9156 2.10433 21.4082C2.60093 21.9009 3.21895 22.2558 3.89686 22.4378C6.37858 23.1093 16.367 23.1093 16.367 23.1093C16.367 23.1093 26.3554 23.1093 28.8371 22.4378C29.515 22.2558 30.1331 21.9009 30.6297 21.4082C31.1263 20.9156 31.4841 20.3025 31.6675 19.63C32.4592 15.2493 32.7033 8.58784 31.647 4.36997Z" fill="#FF0000"/>
    <path d="M13.1675 16.7611L21.4536 12L13.1675 7.23889V16.7611Z" fill="white"/>
    <path d="M46.7425 21.0949C46.1066 20.6676 45.6554 20.0165 45.3888 19.1212C45.1222 18.226 44.9991 17.0459 44.9991 15.5606V13.5463C44.9991 12.0609 45.1427 10.8401 45.4503 9.94489C45.758 9.02929 46.2297 8.3782 46.886 7.97126C47.5424 7.56433 48.3833 7.34052 49.4293 7.34052C50.4548 7.34052 51.2957 7.54398 51.911 7.97126C52.5263 8.39855 52.998 9.04964 53.2852 9.94489C53.5723 10.8401 53.7159 12.0406 53.7159 13.5259V15.5402C53.7159 17.0255 53.5723 18.2056 53.2852 19.1009C52.998 19.9962 52.5468 20.6472 51.911 21.0745C51.2752 21.4815 50.4138 21.7053 49.3472 21.7053C48.2397 21.7256 47.3783 21.5018 46.7425 21.0949ZM50.2907 18.9178C50.4753 18.4702 50.5573 17.7173 50.5573 16.7V12.3661C50.5573 11.3692 50.4753 10.6367 50.2907 10.1891C50.1061 9.72108 49.7985 9.49727 49.3678 9.49727C48.937 9.49727 48.6499 9.72108 48.4653 10.1891C48.2807 10.657 48.1987 11.3692 48.1987 12.3661V16.7C48.1987 17.7173 48.2807 18.4702 48.4448 18.9178C48.6089 19.3654 48.9165 19.5892 49.3678 19.5892C49.7985 19.5892 50.1061 19.3654 50.2907 18.9178ZM95.2488 15.6013V16.3134L95.3309 18.3277C95.3924 18.7754 95.4949 19.1009 95.659 19.3044C95.8231 19.5078 96.0897 19.6096 96.4384 19.6096C96.9102 19.6096 97.2383 19.4264 97.4024 19.0602C97.587 18.694 97.669 18.0836 97.6895 17.2494L100.417 17.4121C100.438 17.5342 100.438 17.697 100.438 17.9004C100.438 19.1823 100.089 20.1386 99.3714 20.7693C98.6535 21.4001 97.669 21.7256 96.3769 21.7256C94.8181 21.7256 93.7311 21.2373 93.1158 20.281C92.5005 19.3247 92.1723 17.8191 92.1723 15.8047V13.3428C92.2421 9.88385 92.8553 7.35069 96.4589 7.34052C97.546 7.34052 98.3664 7.54398 98.9406 7.93057C99.5149 8.31716 99.9251 8.92756 100.171 9.76177C100.417 10.596 100.52 11.7354 100.52 13.2004V15.5809H95.2488V15.6013ZM95.659 9.74143C95.4949 9.94489 95.3924 10.2501 95.3309 10.6977C95.2693 11.1453 95.2488 12.7324 95.2488 12.7324V13.7294H97.546V12.7324C97.546 13.7294 97.5255 11.1657 97.4639 10.6977C97.4024 10.2297 97.2998 9.9042 97.1358 9.72108C96.9717 9.53796 96.7256 9.43623 96.3974 9.43623C96.0487 9.45657 95.8026 9.55831 95.659 9.74143ZM39.0717 15.3368L35.4824 2.47766H38.6205C38.6205 2.47766 40.0869 8.92756 40.5894 11.9592H40.6715C41.2417 8.74037 42.6815 2.47766 42.6815 2.47766H45.8195L42.1892 15.3164V21.4815H39.0922V15.3368H39.0717Z" fill="white"/>
    <path d="M63.8891 7.60498V21.5018H61.4279L61.1613 19.7926H61.0998C60.4229 21.0745 59.4179 21.7256 58.0848 21.7256C55.6707 21.7195 55.4021 19.6909 55.3774 17.9818V7.60498H58.536V17.7987C58.536 18.4091 58.5975 18.8567 58.7411 19.1212C59.0323 19.6868 59.7871 19.5424 60.1973 19.2636C60.4341 19.1048 60.625 18.8874 60.7511 18.6329V7.60498H63.8891Z" fill="white"/>
    <path d="M79.9248 7.60498V21.5018H77.4636L77.1969 19.7926H77.1354C76.4586 21.0745 75.4536 21.7256 74.1204 21.7256C71.7064 21.7195 71.4377 19.6909 71.4131 17.9818V7.60498H74.5716V17.7987C74.5716 18.4091 74.6332 18.8567 74.7767 19.1212C75.068 19.6868 75.8228 19.5424 76.233 19.2636C76.4698 19.1048 76.6607 18.8874 76.7867 18.6329V7.60498H79.9248Z" fill="white"/>
    <path d="M72.462 5.00063H69.3239V21.5018H66.2474V5.00063H63.1094V2.47764H72.4415V5.00063H72.462ZM90.4904 9.82279C90.3058 8.94788 89.9981 8.31713 89.5674 7.9102C89.1367 7.52361 88.5624 7.32015 87.8035 7.32015C87.2264 7.31889 86.6621 7.48895 86.1832 7.80847C85.6705 8.13401 85.3013 8.56129 85.0142 9.09031H84.9936V1.7655H81.9582V21.4814H84.5629L84.8911 20.1589H84.9526C85.2034 20.6247 85.5798 21.0121 86.0397 21.278C86.5319 21.5425 87.0652 21.6849 87.66 21.6849C88.7265 21.6849 89.5059 21.1966 90.0186 20.2199C90.5109 19.2433 90.7775 17.7173 90.7775 15.6623V13.4648C90.7775 11.9185 90.6749 10.6977 90.4904 9.82279ZM87.5984 15.4995C87.5984 16.5168 87.5574 17.3104 87.4754 17.8801C87.3933 18.4498 87.2498 18.8567 87.0447 19.1009C86.8396 19.345 86.5729 19.4671 86.2448 19.4671C85.6089 19.4468 85.248 19.1619 84.9936 18.7346V10.8401C85.0962 10.4535 85.2808 10.1483 85.5474 9.90418C85.9986 9.40161 86.7698 9.39551 87.1267 9.90418C87.3113 10.1483 87.4138 10.5756 87.4959 11.1657C87.5574 11.7557 87.5984 12.5899 87.5984 13.6887V15.4995Z" fill="white"/>
  </g>
  <defs>
    <clipPath id="clip0_5_13">
      <rect width="100.91" height="22.3813" fill="white" transform="translate(0 0.809326)"/>
    </clipPath>
  </defs>
</svg>