<svg xmlns="http://www.w3.org/2000/svg" width="25" height="24" viewBox="0 0 25 24" fill="none">
  <path d="M22.3226 20.4693L17.6285 15.7762C18.9891 14.1428 19.6675 12.0478 19.5227 9.92691C19.3779 7.80604 18.421 5.82265 16.8511 4.38932C15.2812 2.95599 13.2191 2.18308 11.0939 2.23138C8.96862 2.27968 6.9438 3.14547 5.44063 4.64864C3.93746 6.15181 3.07167 8.17663 3.02337 10.3019C2.97508 12.4271 3.74798 14.4892 5.18131 16.0591C6.61464 17.629 8.59804 18.5859 10.7189 18.7307C12.8398 18.8755 14.9348 18.1971 16.5682 16.8365L21.2613 21.5306C21.331 21.6003 21.4137 21.6556 21.5048 21.6933C21.5958 21.731 21.6934 21.7504 21.792 21.7504C21.8905 21.7504 21.9881 21.731 22.0791 21.6933C22.1702 21.6556 22.2529 21.6003 22.3226 21.5306C22.3923 21.4609 22.4475 21.3782 22.4853 21.2871C22.523 21.1961 22.5424 21.0985 22.5424 21C22.5424 20.9014 22.523 20.8038 22.4853 20.7128C22.4475 20.6218 22.3923 20.539 22.3226 20.4693ZM4.54196 10.5C4.54196 9.16495 4.93784 7.8599 5.67954 6.74987C6.42124 5.63984 7.47545 4.77467 8.70885 4.26378C9.94225 3.75289 11.2994 3.61922 12.6088 3.87967C13.9182 4.14012 15.1209 4.78299 16.0649 5.727C17.0089 6.671 17.6518 7.87374 17.9123 9.18311C18.1727 10.4925 18.039 11.8497 17.5282 13.0831C17.0173 14.3165 16.1521 15.3707 15.0421 16.1124C13.932 16.8541 12.627 17.25 11.292 17.25C9.50236 17.248 7.78662 16.5362 6.52118 15.2708C5.25574 14.0053 4.54395 12.2896 4.54196 10.5Z" fill="white"/>
</svg>