<svg xmlns="http://www.w3.org/2000/svg" width="25" height="24" viewBox="0 0 25 24" fill="none">
  <path d="M12.5699 14C11.7365 14 11.0282 13.7083 10.4449 13.125C9.86155 12.5417 9.56988 11.8333 9.56988 11V5C9.56988 4.16667 9.86155 3.45833 10.4449 2.875C11.0282 2.29167 11.7365 2 12.5699 2C13.4032 2 14.1116 2.29167 14.6949 2.875C15.2782 3.45833 15.5699 4.16667 15.5699 5V11C15.5699 11.8333 15.2782 12.5417 14.6949 13.125C14.1116 13.7083 13.4032 14 12.5699 14ZM12.5699 21C12.2865 21 12.0489 20.904 11.8569 20.712C11.6649 20.52 11.5692 20.2827 11.5699 20V17.9C10.0199 17.7 8.70322 17.0583 7.61988 15.975C6.53655 14.8917 5.87822 13.5917 5.64488 12.075C5.59488 11.7917 5.66988 11.5417 5.86988 11.325C6.06988 11.1083 6.33655 11 6.66988 11C6.90322 11 7.11155 11.0873 7.29488 11.262C7.47822 11.4367 7.59488 11.6493 7.64488 11.9C7.86155 13.0667 8.42822 14.0417 9.34488 14.825C10.2615 15.6083 11.3365 16 12.5699 16C13.8032 16 14.8782 15.6083 15.7949 14.825C16.7116 14.0417 17.2782 13.0667 17.4949 11.9C17.5449 11.65 17.6656 11.4373 17.8569 11.262C18.0482 11.0867 18.2609 10.9993 18.4949 11C18.8115 11 19.0699 11.1083 19.2699 11.325C19.4699 11.5417 19.5449 11.7917 19.4949 12.075C19.2615 13.5917 18.6032 14.8917 17.5199 15.975C16.4366 17.0583 15.1199 17.7 13.5699 17.9V20C13.5699 20.2833 13.4739 20.521 13.2819 20.713C13.0899 20.905 12.8525 21.0007 12.5699 21Z" fill="white"/>
</svg>