<svg xmlns="http://www.w3.org/2000/svg" width="24" height="24" viewBox="0 0 24 24" fill="none">
  <path fill-rule="evenodd" clip-rule="evenodd" d="M17.8101 4.86156C16.9236 3.38096 15.0046 2.89936 13.524 3.78587L6.81303 7.80411C5.33244 8.69062 4.85084 10.6095 5.73735 12.0901C6.22414 12.9031 7.02148 13.4149 7.88861 13.5645C8.09465 13.6 8.25682 13.76 8.29514 13.9656C8.33347 14.1711 8.23985 14.3788 8.06047 14.4862L6.52012 15.4085C5.03953 16.295 4.55793 18.2139 5.44444 19.6945C6.33095 21.1751 8.24987 21.6567 9.73046 20.7702L16.4415 16.752C17.9221 15.8654 18.4037 13.9465 17.5172 12.4659C17.0304 11.6529 16.233 11.1412 15.3659 10.9916C15.1599 10.956 14.9977 10.796 14.9594 10.5905C14.921 10.385 15.0147 10.1773 15.194 10.0699L16.7344 9.14758C18.215 8.26107 18.6966 6.34215 17.8101 4.86156ZM13.0103 2.92791C14.9648 1.75768 17.4978 2.39341 18.668 4.34785C19.8383 6.30228 19.2025 8.83532 17.2481 10.0055L16.6477 10.365C17.3416 10.7034 17.9489 11.2404 18.3751 11.9522C19.5453 13.9067 18.9096 16.4397 16.9552 17.6099L10.2442 21.6282C8.28974 22.7984 5.7567 22.1626 4.58648 20.2082C3.41625 18.2538 4.05198 15.7207 6.00642 14.5505L6.6068 14.191C5.91295 13.8526 5.30561 13.3157 4.87938 12.6038C3.70916 10.6494 4.34489 8.11637 6.29932 6.94614L13.0103 2.92791Z" fill="white"/>
  <path d="M10.1533 14.4949V10.4949L14.1533 12.4949L10.1533 14.4949Z" fill="white"/>
</svg>